HIERARCHY
ROOT hips
{
	OFFSET -0.003675 0.299928 -0.021708
	CHANNELS 6 Xposition Yposition Zposition Xrotation Yrotation Zrotation
	JOINT LowerBack
	{
		OFFSET 0.000919 0.177588 0.009275
		CHANNELS 3 Xrotation Yrotation Zrotation
		JOINT spine
		{
			OFFSET 0.000919 0.177588 0.009275
			CHANNELS 3 Xrotation Yrotation Zrotation
			JOINT chest
			{
				OFFSET 0.000456 0.100015 0.004638
				CHANNELS 3 Xrotation Yrotation Zrotation
				JOINT neck
				{
					OFFSET 0.000456 0.100015 0.004638
					CHANNELS 3 Xrotation Yrotation Zrotation
					JOINT head
					{
						OFFSET 0.000924 0.155147 0.009274
						CHANNELS 6 Xposition Yposition Zposition Xrotation Yrotation Zrotation
						End Site
						{
							OFFSET 0.000000 0.153400 0.000000
						}
					}
				}
				JOINT shoulder.L
				{
					OFFSET 0.019937 0.078966 0.057518
					CHANNELS 6 Xposition Yposition Zposition Yrotation Xrotation Zrotation
					JOINT upper_arm.L
					{
						OFFSET 0.177024 -0.020465 -0.095062
						CHANNELS 6 Xposition Yposition Zposition Xrotation Yrotation Zrotation
						JOINT forearm.L
						{
							OFFSET 0.247100 -0.135500 -0.061800
							CHANNELS 3 Xrotation Yrotation Zrotation
							JOINT hand.L
							{
								OFFSET 0.217000 -0.143000 0.039300
								CHANNELS 3 Xrotation Yrotation Zrotation
								JOINT palm.01.L
								{
									OFFSET 0.021770 -0.038291 0.012954
									CHANNELS 6 Xposition Yposition Zposition Yrotation Xrotation Zrotation
									JOINT f_index.01.L
									{
										OFFSET 0.053215 -0.044137 0.008236
										CHANNELS 3 Xrotation Yrotation Zrotation
										JOINT f_index.02.L
										{
											OFFSET 0.036108 -0.024723 -0.010656
											CHANNELS 3 Xrotation Yrotation Zrotation
											JOINT f_index.03.L
											{
												OFFSET 0.021342 -0.014948 -0.010846
												CHANNELS 3 Xrotation Yrotation Zrotation
												End Site
												{
													OFFSET 0.015600 -0.009860 -0.013421
												}
											}
										}
									}
									JOINT thumb.01.L
									{
										OFFSET -0.009090 -0.002348 -0.024223
										CHANNELS 6 Xposition Yposition Zposition Xrotation Yrotation Zrotation
										JOINT thumb.02.L
										{
											OFFSET 0.019713 -0.035076 -0.011120
											CHANNELS 3 Xrotation Yrotation Zrotation
											JOINT thumb.03.L
											{
												OFFSET 0.024877 -0.021748 -0.005176
												CHANNELS 3 Xrotation Yrotation Zrotation
												End Site
												{
													OFFSET 0.016125 -0.013029 -0.001569
												}
											}
										}
									}
								}
								JOINT palm.02.L
								{
									OFFSET 0.032823 -0.025104 0.012281
									CHANNELS 6 Xposition Yposition Zposition Yrotation Xrotation Zrotation
									JOINT f_middle.01.L
									{
										OFFSET 0.055723 -0.038469 0.008037
										CHANNELS 3 Xrotation Yrotation Zrotation
										JOINT f_middle.02.L
										{
											OFFSET 0.038167 -0.027473 -0.015582
											CHANNELS 3 Xrotation Yrotation Zrotation
											JOINT f_middle.03.L
											{
												OFFSET 0.021707 -0.016587 -0.017037
												CHANNELS 3 Xrotation Yrotation Zrotation
												End Site
												{
													OFFSET 0.014112 -0.010584 -0.014294
												}
											}
										}
									}
								}
								JOINT palm.03.L
								{
									OFFSET 0.039230 -0.011402 0.008390
									CHANNELS 6 Xposition Yposition Zposition Yrotation Xrotation Zrotation
									JOINT f_ring.01.L
									{
										OFFSET 0.061796 -0.031470 0.007910
										CHANNELS 3 Xrotation Yrotation Zrotation
										JOINT f_ring.02.L
										{
											OFFSET 0.033092 -0.023401 -0.019127
											CHANNELS 3 Xrotation Yrotation Zrotation
											JOINT f_ring.03.L
											{
												OFFSET 0.021392 -0.015362 -0.017824
												CHANNELS 3 Xrotation Yrotation Zrotation
												End Site
												{
													OFFSET 0.008670 -0.007297 -0.014686
												}
											}
										}
									}
								}
								JOINT palm.04.L
								{
									OFFSET 0.043417 0.002450 0.002889
									CHANNELS 6 Xposition Yposition Zposition Yrotation Xrotation Zrotation
									JOINT f_pinky.01.L
									{
										OFFSET 0.069986 -0.026156 0.003627
										CHANNELS 3 Xrotation Yrotation Zrotation
										JOINT f_pinky.02.L
										{
											OFFSET 0.018520 -0.012813 -0.016429
											CHANNELS 3 Xrotation Yrotation Zrotation
											JOINT f_pinky.03.L
											{
												OFFSET 0.013822 -0.009796 -0.014947
												CHANNELS 3 Xrotation Yrotation Zrotation
												End Site
												{
													OFFSET 0.007238 -0.006103 -0.011657
												}
											}
										}
									}
								}
							}
						}
					}
				}
				JOINT shoulder.R
				{
					OFFSET -0.016662 0.078957 0.057696
					CHANNELS 6 Xposition Yposition Zposition Yrotation Xrotation Zrotation
					JOINT upper_arm.R
					{
						OFFSET -0.176972 -0.020537 -0.095144
						CHANNELS 6 Xposition Yposition Zposition Xrotation Yrotation Zrotation
						JOINT forearm.R
						{
							OFFSET -0.247100 -0.135500 -0.061800
							CHANNELS 3 Xrotation Yrotation Zrotation
							JOINT hand.R
							{
								OFFSET -0.217000 -0.143000 0.039300
								CHANNELS 3 Xrotation Yrotation Zrotation
								JOINT palm.01.R
								{
									OFFSET -0.021773 -0.038278 0.012988
									CHANNELS 6 Xposition Yposition Zposition Yrotation Xrotation Zrotation
									JOINT f_index.01.R
									{
										OFFSET -0.053212 -0.044139 0.008249
										CHANNELS 3 Xrotation Yrotation Zrotation
										JOINT f_index.02.R
										{
											OFFSET -0.036049 -0.024835 -0.010634
											CHANNELS 3 Xrotation Yrotation Zrotation
											JOINT f_index.03.R
											{
												OFFSET -0.021371 -0.014881 -0.010866
												CHANNELS 3 Xrotation Yrotation Zrotation
												End Site
												{
													OFFSET -0.015584 -0.009883 -0.013422
												}
											}
										}
									}
									JOINT thumb.01.R
									{
										OFFSET 0.009113 -0.002381 -0.024211
										CHANNELS 6 Xposition Yposition Zposition Xrotation Yrotation Zrotation
										JOINT thumb.02.R
										{
											OFFSET -0.019694 -0.035097 -0.011088
											CHANNELS 3 Xrotation Yrotation Zrotation
											JOINT thumb.03.R
											{
												OFFSET -0.024867 -0.021762 -0.005168
												CHANNELS 3 Xrotation Yrotation Zrotation
												End Site
												{
													OFFSET -0.016120 -0.013036 -0.001565
												}
											}
										}
									}
								}
								JOINT palm.02.R
								{
									OFFSET -0.032828 -0.025095 0.012286
									CHANNELS 6 Xposition Yposition Zposition Yrotation Xrotation Zrotation
									JOINT f_middle.01.R
									{
										OFFSET -0.055721 -0.038472 0.008040
										CHANNELS 3 Xrotation Yrotation Zrotation
										JOINT f_middle.02.R
										{
											OFFSET -0.038101 -0.027593 -0.015557
											CHANNELS 3 Xrotation Yrotation Zrotation
											JOINT f_middle.03.R
											{
												OFFSET -0.021730 -0.016530 -0.017054
												CHANNELS 3 Xrotation Yrotation Zrotation
												End Site
												{
													OFFSET -0.014096 -0.010608 -0.014293
												}
											}
										}
									}
								}
								JOINT palm.03.R
								{
									OFFSET -0.039192 -0.011488 0.008390
									CHANNELS 6 Xposition Yposition Zposition Yrotation Xrotation Zrotation
									JOINT f_ring.01.R
									{
										OFFSET -0.061839 -0.031387 0.007876
										CHANNELS 3 Xrotation Yrotation Zrotation
										JOINT f_ring.02.R
										{
											OFFSET -0.033068 -0.023437 -0.019125
											CHANNELS 3 Xrotation Yrotation Zrotation
											JOINT f_ring.03.R
											{
												OFFSET -0.021371 -0.015393 -0.017822
												CHANNELS 3 Xrotation Yrotation Zrotation
												End Site
												{
													OFFSET -0.008654 -0.007321 -0.014684
												}
											}
										}
									}
								}
								JOINT palm.04.R
								{
									OFFSET -0.043421 0.002443 0.002845
									CHANNELS 6 Xposition Yposition Zposition Yrotation Xrotation Zrotation
									JOINT f_pinky.01.R
									{
										OFFSET -0.069983 -0.026169 0.003599
										CHANNELS 3 Xrotation Yrotation Zrotation
										JOINT f_pinky.02.R
										{
											OFFSET -0.018501 -0.012842 -0.016428
											CHANNELS 3 Xrotation Yrotation Zrotation
											JOINT f_pinky.03.R
											{
												OFFSET -0.013806 -0.009821 -0.014946
												CHANNELS 3 Xrotation Yrotation Zrotation
												End Site
												{
													OFFSET -0.007226 -0.006121 -0.011655
												}
											}
										}
									}
								}
							}
						}
					}
				}
			}
		}
	}
	JOINT pelvis.L
	{
		OFFSET 0.000000 0.000000 0.000000
		CHANNELS 6 Xposition Yposition Zposition Xrotation Yrotation Zrotation
		JOINT thigh.L
		{
			OFFSET 0.101675 0.001054 -0.000000
			CHANNELS 3 Xrotation Yrotation Zrotation
			JOINT shin.L
			{
				OFFSET 0.000000 -0.534800 0.041000
				CHANNELS 3 Xrotation Yrotation Zrotation
				JOINT foot.L
				{
					OFFSET 0.000000 -0.452000 -0.044800
					CHANNELS 3 Xrotation Yrotation Zrotation
					JOINT toe.L
					{
						OFFSET -0.000000 -0.068500 0.109600
						CHANNELS 3 Xrotation Yrotation Zrotation
						End Site
						{
							OFFSET -0.000000 0.000000 0.067200
						}
					}
				}
				JOINT heel.L
				{
					OFFSET 0.000000 -0.452000 -0.044800
					CHANNELS 3 Xrotation Yrotation Zrotation
					JOINT heel.02.L
					{
						OFFSET -0.038000 -0.085200 0.016200
						CHANNELS 6 Xposition Yposition Zposition Xrotation Yrotation Zrotation
						End Site
						{
							OFFSET 0.080000 -0.000000 0.000000
						}
					}
				}
			}
		}
	}
	JOINT pelvis.R
	{
		OFFSET 0.000000 0.000000 0.000000
		CHANNELS 6 Xposition Yposition Zposition Xrotation Yrotation Zrotation
		JOINT thigh.R
		{
			OFFSET -0.094325 0.001054 0.000000
			CHANNELS 3 Xrotation Yrotation Zrotation
			JOINT shin.R
			{
				OFFSET 0.000000 -0.534800 0.041000
				CHANNELS 3 Xrotation Yrotation Zrotation
				JOINT foot.R
				{
					OFFSET 0.000000 -0.452000 -0.044800
					CHANNELS 3 Xrotation Yrotation Zrotation
					JOINT toe.R
					{
						OFFSET -0.000000 -0.068500 0.109600
						CHANNELS 3 Xrotation Yrotation Zrotation
						End Site
						{
							OFFSET -0.000000 0.000000 0.067200
						}
					}
				}
				JOINT heel.R
				{
					OFFSET 0.000000 -0.452000 -0.044800
					CHANNELS 3 Xrotation Yrotation Zrotation
					JOINT heel.02.R
					{
						OFFSET 0.038000 -0.085200 0.016200
						CHANNELS 6 Xposition Yposition Zposition Xrotation Yrotation Zrotation
						End Site
						{
							OFFSET -0.080000 0.000000 -0.000000
						}
					}
				}
			}
		}
	}
}
MOTION
Frames: 4
Frame Time: 0.041667
-0.003675 0.299928 -0.021708 0.000000 -0.000000 0.000000 -0.000001 0.000000 0.000000 -0.000000 0.000000 0.000000 -0.000000 0.000000 0.000000 -0.000000 -0.000000 -0.000000 0.000924 0.155147 0.009274 -0.000001 -0.000000 -0.000000 0.019937 0.078966 0.057518 0.000001 0.000001 -0.000005 0.177024 -0.020465 -0.095062 -0.000006 -0.000003 0.000015 -0.000009 -0.000004 -0.000009 -0.000000 0.000000 0.000001 0.021770 -0.038291 0.012954 0.000001 -0.000001 0.000001 -0.000001 -0.000001 -0.000002 -0.000001 -0.000000 0.000007 -0.000000 0.000000 0.000003 -0.009090 -0.002348 -0.024224 -0.000002 0.000001 0.000001 0.000001 -0.000001 0.000001 -0.000000 0.000000 -0.000001 0.032823 -0.025104 0.012281 0.000000 -0.000000 0.000000 0.000001 0.000004 -0.000003 -0.000001 -0.000000 -0.000000 -0.000001 -0.000003 0.000003 0.039230 -0.011402 0.008390 -0.000000 -0.000000 0.000008 0.000001 0.000001 -0.000000 -0.000001 0.000003 -0.000001 0.000002 0.000002 -0.000000 0.043417 0.002450 0.002889 -0.000000 0.000001 0.000002 -0.000001 -0.000003 0.000001 -0.000000 0.000003 -0.000000 -0.000000 -0.000003 0.000001 -0.016662 0.078956 0.057696 -0.000001 0.000002 0.000011 -0.176972 -0.020537 -0.095144 0.000001 -0.000003 -0.000005 -0.000006 0.000005 -0.000014 -0.000001 -0.000000 0.000000 -0.021773 -0.038278 0.012988 0.000000 -0.000001 -0.000003 -0.000001 0.000001 -0.000003 -0.000001 -0.000000 0.000001 0.000001 0.000002 0.000007 0.009113 -0.002381 -0.024211 0.000002 -0.000001 0.000004 -0.000000 0.000001 0.000002 0.000000 0.000000 -0.000003 -0.032828 -0.025095 0.012286 0.000001 -0.000001 -0.000001 -0.000001 0.000003 -0.000003 -0.000002 0.000004 -0.000001 0.000001 -0.000002 -0.000000 -0.039192 -0.011488 0.008390 0.000000 0.000000 0.000001 -0.000000 0.000003 -0.000003 -0.000001 0.000001 0.000002 -0.000001 0.000000 -0.000003 -0.043421 0.002443 0.002844 -0.000000 -0.000001 0.000000 -0.000007 0.000003 -0.000002 -0.000003 -0.000000 -0.000000 0.000001 -0.000000 0.000001 -0.000000 0.000000 -0.000000 -0.000001 -0.000000 0.000001 0.000009 -0.000202 0.000014 -0.000026 0.000202 -0.000015 0.000000 -0.000000 -0.000000 0.000002 -0.000000 -0.000000 0.000000 0.000000 -0.000000 -0.038000 -0.085200 0.016200 0.000000 0.000000 0.000000 0.000000 -0.000000 -0.000000 -0.000001 0.000000 -0.000004 0.000008 -0.000013 0.000005 -0.000012 0.000013 -0.000001 -0.000003 -0.000000 -0.000000 0.000000 -0.000000 -0.000000 0.000002 -0.000000 -0.000000 0.038000 -0.085200 0.016200 0.000002 -0.000000 0.000000 
-0.010862 0.275364 -0.025695 71.879948 29.031282 -57.220132 -0.000003 -0.000000 -0.000001 -0.000003 -0.000002 0.000004 0.000002 0.000000 -0.000002 0.000002 0.000001 -0.000001 0.000924 0.155147 0.009274 5.389387 -0.007279 -5.401725 0.019937 0.078966 0.057518 0.892715 0.784632 29.559942 0.177024 -0.020465 -0.095062 -46.494505 16.172650 -59.353278 -13.696932 -11.791295 -23.663542 -0.000002 -0.000000 -0.000006 0.021770 -0.038291 0.012954 -0.000001 -0.000000 -0.000002 0.000002 -0.000001 -0.000002 -0.000004 -0.000000 0.000005 -0.000000 -0.000001 0.000001 -0.009090 -0.002348 -0.024224 0.000003 -0.000002 0.000001 0.000003 -0.000003 0.000001 -0.000006 0.000003 0.000001 0.032823 -0.025104 0.012281 -0.000000 0.000001 -0.000001 -0.000001 -0.000001 0.000000 -0.000003 0.000002 -0.000000 -0.000000 0.000005 0.000001 0.039230 -0.011402 0.008390 0.000001 0.000001 0.000004 0.000002 0.000002 0.000001 -0.000004 0.000003 0.000001 -0.000002 -0.000003 0.000003 0.043417 0.002450 0.002889 -0.000001 0.000002 -0.000003 -0.000004 -0.000008 -0.000000 0.000006 0.000002 -0.000001 -0.000002 -0.000002 -0.000002 -0.016662 0.078957 0.057696 13.945499 0.330378 -31.883494 -0.176972 -0.020537 -0.095144 -50.856554 -20.189541 61.214901 -4.118724 6.039807 12.116789 -0.000000 -0.000001 0.000002 -0.021773 -0.038278 0.012988 0.000000 -0.000000 0.000000 0.000000 0.000003 0.000006 -0.000002 -0.000000 -0.000004 -0.000000 0.000000 0.000001 0.009113 -0.002381 -0.024212 0.000000 -0.000001 0.000004 0.000001 -0.000002 0.000005 -0.000001 -0.000001 0.000001 -0.032828 -0.025095 0.012286 0.000001 -0.000001 -0.000003 -0.000002 0.000001 -0.000003 0.000002 0.000001 -0.000002 -0.000001 0.000006 -0.000007 -0.039192 -0.011488 0.008390 0.000001 0.000002 -0.000002 -0.000001 0.000002 0.000000 0.000005 -0.000004 0.000002 0.000001 -0.000001 -0.000002 -0.043421 0.002443 0.002845 -0.000001 -0.000001 -0.000001 -0.000005 0.000007 -0.000003 -0.000001 -0.000000 -0.000000 0.000002 -0.000000 -0.000000 0.000000 0.000000 0.000000 -2.092618 -0.369732 3.181129 -85.019155 -0.630316 -4.296697 49.728435 -1.470033 15.007818 -0.000002 0.000002 -0.000001 -0.000000 0.000004 -0.000003 0.000000 -0.000001 0.000001 -0.038000 -0.085200 0.016200 0.000000 -0.000004 0.000000 0.000000 0.000000 0.000000 -2.060531 -0.367624 4.415512 -69.965015 0.573517 2.970439 69.494074 1.283850 -13.066690 0.000003 -0.000000 0.000000 0.000003 -0.000001 -0.000000 0.000007 -0.000000 -0.000001 0.038000 -0.085200 0.016200 -0.000003 0.000001 -0.000002 
-0.012697 0.276902 -0.028370 69.065152 27.892437 -55.539567 0.000002 -0.000000 -0.000001 0.000003 -0.000001 0.000004 -0.000001 -0.000002 0.000003 -0.000002 -0.000001 0.000001 0.000924 0.155148 0.009274 4.331527 -0.005115 -5.864689 0.019937 0.078966 0.057518 -2.083694 0.800109 30.171353 0.177025 -0.020465 -0.095062 -49.554115 18.080095 -60.236231 -9.654912 -9.993384 -18.704558 -0.000003 -0.000001 -0.000002 0.021770 -0.038291 0.012954 -0.000001 -0.000000 0.000001 0.000001 -0.000000 0.000001 -0.000003 -0.000002 0.000006 0.000007 0.000001 -0.000000 -0.009090 -0.002348 -0.024224 0.000001 -0.000002 -0.000004 -0.000000 -0.000000 -0.000002 0.000002 -0.000000 0.000001 0.032823 -0.025104 0.012281 -0.000003 0.000002 0.000005 -0.000003 -0.000002 -0.000005 -0.000006 -0.000002 0.000003 -0.000001 -0.000006 0.000004 0.039230 -0.011402 0.008390 -0.000000 0.000001 0.000003 0.000004 0.000000 -0.000002 -0.000000 0.000001 0.000001 0.000001 -0.000002 0.000003 0.043417 0.002450 0.002889 -0.000004 0.000003 -0.000000 -0.000001 -0.000003 -0.000000 -0.000001 0.000002 -0.000001 -0.000003 0.000002 -0.000004 -0.016662 0.078956 0.057696 12.560133 0.891952 -32.726008 -0.176972 -0.020537 -0.095144 -54.645991 -22.637252 62.391579 -1.540699 3.636694 11.523220 0.000001 0.000002 -0.000000 -0.021773 -0.038278 0.012988 -0.000000 0.000000 -0.000003 -0.000003 0.000006 0.000002 -0.000000 -0.000000 -0.000006 -0.000001 0.000000 0.000001 0.009113 -0.002381 -0.024211 -0.000005 0.000002 -0.000001 0.000004 -0.000001 0.000004 -0.000003 -0.000002 -0.000008 -0.032828 -0.025095 0.012286 0.000001 0.000001 -0.000003 0.000002 0.000003 0.000001 0.000003 0.000001 0.000001 0.000003 0.000003 -0.000003 -0.039192 -0.011488 0.008390 0.000001 0.000001 -0.000000 0.000001 0.000000 -0.000002 -0.000002 0.000001 -0.000002 -0.000002 0.000001 0.000001 -0.043421 0.002443 0.002845 -0.000001 0.000001 0.000000 -0.000006 0.000005 0.000001 -0.000000 -0.000003 0.000002 0.000000 -0.000003 0.000001 -0.000000 0.000000 -0.000000 -2.050575 -0.423415 3.818111 -87.914466 -0.654053 -4.577448 56.324933 -1.280279 13.033443 -0.000002 -0.000003 -0.000000 0.000000 -0.000006 0.000001 0.000000 -0.000002 0.000002 -0.038000 -0.085200 0.016200 -0.000003 0.000002 -0.000003 0.000000 0.000000 -0.000000 -2.021063 -0.421131 5.052511 -75.285856 0.728840 4.874439 71.743904 1.205004 -12.250888 -0.000003 -0.000000 -0.000001 0.000003 0.000000 -0.000003 0.000005 -0.000001 0.000001 0.038000 -0.085200 0.016200 0.000003 -0.000003 0.000004 
-0.014224 0.278142 -0.028961 68.433161 30.138705 -54.615965 0.000001 -0.000001 0.000001 0.000002 -0.000001 0.000001 0.000003 0.000000 0.000000 0.000005 0.000000 0.000000 0.000924 0.155148 0.009275 4.275416 -0.004455 -4.887468 0.019937 0.078966 0.057518 -2.928863 1.000514 30.150702 0.177024 -0.020465 -0.095062 -48.072774 16.494717 -59.119577 -9.112625 -9.629239 -19.320136 -0.000001 -0.000002 0.000002 0.021770 -0.038291 0.012954 -0.000001 0.000001 -0.000002 -0.000002 -0.000000 0.000001 0.000005 -0.000003 0.000005 0.000003 0.000002 0.000002 -0.009090 -0.002348 -0.024223 0.000000 -0.000002 0.000001 -0.000001 0.000001 0.000001 -0.000002 -0.000001 0.000001 0.032823 -0.025104 0.012281 -0.000000 0.000001 0.000004 -0.000002 0.000002 -0.000002 -0.000002 0.000001 0.000003 0.000003 0.000005 0.000001 0.039230 -0.011402 0.008390 0.000000 0.000001 0.000003 -0.000001 0.000002 -0.000000 0.000001 -0.000003 0.000003 0.000002 0.000002 0.000001 0.043417 0.002450 0.002889 0.000000 0.000001 -0.000002 0.000001 -0.000004 0.000003 -0.000001 0.000002 0.000000 -0.000002 -0.000001 -0.000001 -0.016662 0.078956 0.057696 11.834986 0.862835 -31.591927 -0.176972 -0.020537 -0.095144 -52.671308 -20.492041 61.211049 -0.448070 2.516815 9.885978 0.000000 -0.000001 -0.000001 -0.021773 -0.038278 0.012988 -0.000001 -0.000002 0.000002 -0.000001 0.000001 -0.000001 -0.000002 -0.000000 -0.000003 -0.000000 -0.000002 0.000003 0.009113 -0.002381 -0.024211 0.000001 -0.000000 -0.000001 0.000001 -0.000001 0.000004 0.000001 -0.000001 -0.000003 -0.032828 -0.025095 0.012286 -0.000001 0.000001 -0.000001 -0.000000 0.000005 -0.000001 0.000001 -0.000000 -0.000001 -0.000003 0.000001 -0.000004 -0.039192 -0.011488 0.008390 -0.000001 0.000000 0.000001 -0.000001 0.000005 0.000000 0.000000 -0.000001 0.000003 -0.000002 0.000003 -0.000000 -0.043421 0.002443 0.002844 -0.000001 0.000001 0.000000 -0.000002 0.000002 -0.000002 -0.000001 -0.000003 0.000002 0.000002 0.000002 -0.000003 -0.000000 0.000000 -0.000000 -1.996178 -0.332877 2.833440 -88.337726 -0.736146 -5.671587 59.568061 -0.993982 10.083691 0.000000 0.000002 0.000002 -0.000003 0.000000 -0.000001 -0.000002 0.000002 0.000002 -0.038000 -0.085200 0.016200 0.000002 0.000001 -0.000000 0.000000 0.000000 -0.000000 -1.964617 -0.330987 4.067813 -76.701966 0.815307 6.005945 71.816085 0.834389 -8.447890 0.000003 0.000001 0.000000 0.000003 -0.000000 -0.000000 0.000007 -0.000001 -0.000000 0.038000 -0.085200 0.016200 -0.000000 0.000002 0.000000 
